<svg version="1.1" xmlns="http://www.w3.org/2000/svg" xmlns:xlink="http://www.w3.org/1999/xlink" viewBox="0 0 172 172"><g fill="none" fill-rule="nonzero" stroke="none" stroke-width="1" stroke-linecap="butt" stroke-linejoin="miter" stroke-miterlimit="10" stroke-dasharray="" stroke-dashoffset="0" font-family="none" font-weight="none" font-size="none" text-anchor="none" style="mix-blend-mode: normal"><path d="M0,172v-172h172v172z" fill="none"></path><g fill="#ffffff"><path d="M48.375,10.75c-11.85456,0 -21.5,9.64544 -21.5,21.5c0,11.85456 9.64544,21.5 21.5,21.5c11.85456,0 21.5,-9.64544 21.5,-21.5c0,-11.85456 -9.64544,-21.5 -21.5,-21.5zM123.625,10.75c-8.07923,0 -15.12374,4.48495 -18.79675,11.09119c-0.16939,-0.00193 -0.3348,-0.05063 -0.50391,-0.021c-10.61831,1.95919 -18.32434,13.12537 -18.32434,26.55481c0,1.48619 1.204,2.6875 2.6875,2.6875h16.125c1.4835,0 2.6875,-1.20131 2.6875,-2.6875v-1.95264c3.94318,4.48139 9.70111,7.32764 16.125,7.32764c6.42389,0 12.18182,-2.84624 16.125,-7.32764v1.95264c0,1.48619 1.204,2.6875 2.6875,2.6875h16.125c1.4835,0 2.6875,-1.20131 2.6875,-2.6875c0,-13.42944 -7.70603,-24.59562 -18.32434,-26.55481c-0.16889,-0.03065 -0.33498,0.01447 -0.50391,0.01575c-3.67362,-6.60409 -10.71913,-11.08594 -18.79675,-11.08594zM48.375,16.125c8.89294,0 16.125,7.23206 16.125,16.125c0,8.89294 -7.23206,16.125 -16.125,16.125c-8.89294,0 -16.125,-7.23206 -16.125,-16.125c0,-8.89294 7.23206,-16.125 16.125,-16.125zM123.625,16.125c7.00669,0 12.9657,4.4959 15.18543,10.75h-30.37085c2.21972,-6.2541 8.17873,-10.75 15.18543,-10.75zM102.125,28.14001v1.42249v16.125h-10.62402c0.76863,-8.041 4.93996,-14.85192 10.62402,-17.54749zM145.125,28.14001c5.68406,2.69556 9.8554,9.50649 10.62402,17.54749h-10.62402zM107.5,32.25h32.25c0,8.89294 -7.23206,16.125 -16.125,16.125c-8.89294,0 -16.125,-7.23206 -16.125,-16.125zM32.21851,59.125c-5.90981,0 -11.21204,3.95621 -12.88635,9.62146l-11.35889,38.38611c-0.61544,2.07475 -0.37612,4.26242 0.66663,6.15711c1.04275,1.89469 2.76204,3.26422 4.84485,3.85278c2.064,0.59125 4.23411,0.32632 6.10461,-0.71912c1.8705,-1.04812 3.22235,-2.75985 3.80554,-4.82385l3.4801,-12.29321v24.31873v33.59375c0,5.18687 4.21937,9.40625 9.40625,9.40625c5.18688,0 9.40625,-4.21938 9.40625,-9.40625v-30.90625h5.375v30.90625c0,5.18687 4.21937,9.40625 9.40625,9.40625c5.18688,0 9.40625,-4.21938 9.40625,-9.40625v-33.59375v-24.31873l3.4801,12.29321c0.58319,2.064 1.93504,3.77573 3.80554,4.82385c1.87318,1.04275 4.04061,1.29693 6.10461,0.71912c1.00135,-0.28243 1.86408,-0.81404 2.65601,-1.43823c0.82137,0.65306 1.77207,1.14395 2.81348,1.43823c1.92694,0.55363 3.9345,0.36428 5.71094,-0.50915l-3.01294,14.5083c-0.16662,0.79012 0.03527,1.61514 0.5459,2.24133c0.51062,0.62619 1.27493,0.99207 2.08386,0.99207h8.0625v22.84375c0,5.18687 4.21937,9.40625 9.40625,9.40625c5.18688,0 9.40625,-4.21938 9.40625,-9.40625v-22.84375h5.375v22.84375c0,5.18687 4.21938,9.40625 9.40625,9.40625c5.18687,0 9.40625,-4.21938 9.40625,-9.40625v-22.84375h10.75c0.83312,0 1.61792,-0.38881 2.12586,-1.04456c0.51063,-0.65844 0.68729,-1.51651 0.47766,-2.32007l-3.55359,-13.6842c1.17981,0.21231 2.40246,0.15491 3.59033,-0.18371c2.08281,-0.58856 3.8021,-1.9581 4.84485,-3.85278c1.04275,-1.89469 1.28206,-4.08236 0.66663,-6.15711l-11.35889,-38.38086c-1.67431,-5.66794 -6.97654,-9.62671 -12.88635,-9.62671h-32.31299c-5.90981,0 -11.20935,3.95621 -12.88635,9.62146l-8.58215,28.99036l-8.58215,-28.98511c-1.67431,-5.66794 -6.97654,-9.62671 -12.88635,-9.62671zM32.21851,64.5h32.31299c3.54481,0 6.72669,2.37424 7.73181,5.77393l3.06018,10.35107h-5.14404l-0.40417,-1.42249c-0.3655,-1.28731 -1.63551,-2.12514 -2.96045,-1.93164c-1.32762,0.18275 -2.31482,1.32019 -2.31482,2.66126v41.00537h-21.5h-10.75v-13.4375h24.1875c1.4835,0 2.6875,-1.20131 2.6875,-2.6875c0,-1.48619 -1.204,-2.6875 -2.6875,-2.6875h-24.1875v-22.19287c0,-1.34106 -0.98976,-2.47851 -2.32007,-2.66126c-1.32763,-0.20156 -2.5897,0.64164 -2.9552,1.93164l-0.40417,1.42249h-5.14929l3.06543,-10.35107c1.00244,-3.397 4.18431,-5.77393 7.73181,-5.77393zM107.46851,64.5h32.31299c3.5475,0 6.72681,2.37424 7.72656,5.77393l4.65588,15.72607h-5.21228l-1.92639,-6.80273c-0.40044,-1.41362 -1.86945,-2.2559 -3.29114,-1.85815c-1.42169,0.387 -2.27102,1.84052 -1.90015,3.26489l12.56616,48.39599h-55.03601l10.07813,-48.52197c0.29563,-1.419 -0.58907,-2.81322 -1.99463,-3.15991c-1.40287,-0.34669 -2.82784,0.48971 -3.2229,1.87915l-1.92639,6.80273h-5.21753l4.65588,-15.72607c1.00513,-3.397 4.187,-5.77393 7.73181,-5.77393zM19.83081,86h5.22278l-6.82898,24.13501c-0.1935,0.68262 -0.64164,1.24902 -1.25977,1.5957c-0.61813,0.34938 -1.33838,0.43496 -2.01562,0.24145c-0.688,-0.19619 -1.25426,-0.64664 -1.60095,-1.27551c-0.34669,-0.62888 -0.42471,-1.35131 -0.22046,-2.03662zM71.69641,86h5.21753l6.28308,21.2323c-0.35939,1.26956 -0.366,2.57078 -0.09973,3.82654c-0.34099,0.4198 -0.76247,0.75956 -1.29651,0.91333c-0.67994,0.1935 -1.3975,0.10792 -2.01562,-0.24145c-0.61813,-0.34669 -1.06627,-0.91308 -1.25977,-1.5957zM93.5271,91.26477c0.17913,0.03759 0.34513,0.11023 0.5354,0.11023h4.71887l-5.30676,18.76001c-0.1935,0.68262 -0.64164,1.24902 -1.25977,1.5957c-0.61812,0.34938 -1.33837,0.43496 -2.01562,0.24145c-0.69069,-0.19887 -1.25695,-0.64664 -1.60095,-1.27551c-0.344,-0.62888 -0.42471,-1.35131 -0.22046,-2.03662zM153.7229,91.26477l5.14929,17.39527c0.20425,0.68531 0.12623,1.40774 -0.22046,2.03662c-0.34669,0.62888 -0.9182,1.07932 -1.6062,1.27551c-0.67725,0.1935 -1.3975,0.10792 -2.01562,-0.24145c-0.61812,-0.34669 -1.06102,-0.91308 -1.25452,-1.5957l-5.30676,-18.76001h4.71887c0.19027,0 0.35627,-0.07264 0.5354,-0.11023zM110.1875,112.875c-1.4835,0 -2.6875,1.20131 -2.6875,2.6875v5.375c0,1.48619 1.204,2.6875 2.6875,2.6875c1.4835,0 2.6875,-1.20131 2.6875,-2.6875v-5.375c0,-1.48619 -1.204,-2.6875 -2.6875,-2.6875zM123.625,112.875c-1.4835,0 -2.6875,1.20131 -2.6875,2.6875v5.375c0,1.48619 1.204,2.6875 2.6875,2.6875c1.4835,0 2.6875,-1.20131 2.6875,-2.6875v-5.375c0,-1.48619 -1.204,-2.6875 -2.6875,-2.6875zM137.0625,112.875c-1.4835,0 -2.6875,1.20131 -2.6875,2.6875v5.375c0,1.48619 1.204,2.6875 2.6875,2.6875c1.4835,0 2.6875,-1.20131 2.6875,-2.6875v-5.375c0,-1.48619 -1.204,-2.6875 -2.6875,-2.6875zM32.25,126.3125h8.0625v30.90625c0,2.22256 -1.80869,4.03125 -4.03125,4.03125c-2.22256,0 -4.03125,-1.80869 -4.03125,-4.03125zM56.4375,126.3125h8.0625v30.90625c0,2.22256 -1.80869,4.03125 -4.03125,4.03125c-2.22256,0 -4.03125,-1.80869 -4.03125,-4.03125zM107.5,134.375h8.0625v22.84375c0,2.22256 -1.80869,4.03125 -4.03125,4.03125c-2.22256,0 -4.03125,-1.80869 -4.03125,-4.03125zM131.6875,134.375h8.0625v22.84375c0,2.22256 -1.80869,4.03125 -4.03125,4.03125c-2.22256,0 -4.03125,-1.80869 -4.03125,-4.03125z"></path></g></g></svg>